<?xml version="1.0" encoding="UTF-8" standalone="no"?>
<!DOCTYPE svg PUBLIC "-//W3C//DTD SVG 1.1//EN"
 "http://www.w3.org/Graphics/SVG/1.1/DTD/svg11.dtd">
<!-- Generated by graphviz version 2.40.1 (20161225.0304)
 -->
<!-- Title: /home/travis/build/AliceO2Group/AliceO2/GPU/GPUTracking/TPCClusterFinder/GPUTPCCFChainContext.h Pages: 1 -->
<svg width="950pt" height="397pt"
 viewBox="0.00 0.00 950.00 397.00" xmlns="http://www.w3.org/2000/svg" xmlns:xlink="http://www.w3.org/1999/xlink">
<g id="graph0" class="graph" transform="scale(1 1) rotate(0) translate(4 393)">
<title>/home/travis/build/AliceO2Group/AliceO2/GPU/GPUTracking/TPCClusterFinder/GPUTPCCFChainContext.h</title>
<!-- Node0 -->
<g id="node1" class="node">
<title>Node0</title>
<polygon fill="#bfbfbf" stroke="#000000" points="434.5,-336.5 434.5,-388.5 625.5,-388.5 625.5,-336.5 434.5,-336.5"/>
<text text-anchor="start" x="442.5" y="-376.5" font-family="Helvetica,sans-Serif" font-size="10.00" fill="#000000">/home/travis/build</text>
<text text-anchor="start" x="442.5" y="-365.5" font-family="Helvetica,sans-Serif" font-size="10.00" fill="#000000">/AliceO2Group/AliceO2</text>
<text text-anchor="start" x="442.5" y="-354.5" font-family="Helvetica,sans-Serif" font-size="10.00" fill="#000000">/GPU/GPUTracking/TPCClusterFinder</text>
<text text-anchor="middle" x="530" y="-343.5" font-family="Helvetica,sans-Serif" font-size="10.00" fill="#000000">/GPUTPCCFChainContext.h</text>
</g>
<!-- Node1 -->
<g id="node2" class="node">
<title>Node1</title>
<g id="a_node2"><a xlink:href="../../d9/db0/clusterFinderDefs_8h.html" target="_top" xlink:title="clusterFinderDefs.h">
<polygon fill="none" stroke="#000000" points="471,-168.5 471,-187.5 581,-187.5 581,-168.5 471,-168.5"/>
<text text-anchor="middle" x="526" y="-175.5" font-family="Helvetica,sans-Serif" font-size="10.00" fill="#000000">clusterFinderDefs.h</text>
</a>
</g>
</g>
<!-- Node0&#45;&gt;Node1 -->
<g id="edge1" class="edge">
<title>Node0&#45;&gt;Node1</title>
<path fill="none" stroke="#191970" d="M532.535,-336.4119C534.8281,-308.5323 537.3716,-263.0647 534,-224 533.2524,-215.3385 531.7271,-205.8607 530.207,-197.7708"/>
<polygon fill="#191970" stroke="#191970" points="533.6069,-196.924 528.2107,-187.8064 526.7433,-198.2991 533.6069,-196.924"/>
</g>
<!-- Node12 -->
<g id="node13" class="node">
<title>Node12</title>
<g id="a_node13"><a xlink:href="../../d4/dc5/GPUDataTypes_8h.html" target="_top" xlink:title="GPUDataTypes.h">
<polygon fill="none" stroke="#000000" points="167,-224.5 167,-243.5 265,-243.5 265,-224.5 167,-224.5"/>
<text text-anchor="middle" x="216" y="-231.5" font-family="Helvetica,sans-Serif" font-size="10.00" fill="#000000">GPUDataTypes.h</text>
</a>
</g>
</g>
<!-- Node0&#45;&gt;Node12 -->
<g id="edge12" class="edge">
<title>Node0&#45;&gt;Node12</title>
<path fill="none" stroke="#191970" d="M441.8626,-336.4478C409.981,-326.1772 373.9735,-313.5835 342,-300 305.9251,-284.674 266.1478,-262.9813 241.1268,-248.7083"/>
<polygon fill="#191970" stroke="#191970" points="242.7117,-245.5822 232.2983,-243.63 239.2214,-251.65 242.7117,-245.5822"/>
</g>
<!-- Node14 -->
<g id="node15" class="node">
<title>Node14</title>
<g id="a_node15"><a xlink:href="../../d6/d4b/GPUTPCClusterFinder_8h.html" target="_top" xlink:title="GPUTPCClusterFinder.h">
<polygon fill="none" stroke="#000000" points="351,-280.5 351,-299.5 479,-299.5 479,-280.5 351,-280.5"/>
<text text-anchor="middle" x="415" y="-287.5" font-family="Helvetica,sans-Serif" font-size="10.00" fill="#000000">GPUTPCClusterFinder.h</text>
</a>
</g>
</g>
<!-- Node0&#45;&gt;Node14 -->
<g id="edge15" class="edge">
<title>Node0&#45;&gt;Node14</title>
<path fill="none" stroke="#191970" d="M488.4824,-336.3258C471.8051,-325.8119 453.1793,-314.0696 438.8529,-305.0377"/>
<polygon fill="#191970" stroke="#191970" points="440.4487,-301.9063 430.1229,-299.534 436.7156,-307.8278 440.4487,-301.9063"/>
</g>
<!-- Node17 -->
<g id="node18" class="node">
<title>Node17</title>
<g id="a_node18"><a xlink:href="../../d8/dcc/CfFragment_8h.html" target="_top" xlink:title="CfFragment.h">
<polygon fill="none" stroke="#000000" points="443,-224.5 443,-243.5 525,-243.5 525,-224.5 443,-224.5"/>
<text text-anchor="middle" x="484" y="-231.5" font-family="Helvetica,sans-Serif" font-size="10.00" fill="#000000">CfFragment.h</text>
</a>
</g>
</g>
<!-- Node0&#45;&gt;Node17 -->
<g id="edge29" class="edge">
<title>Node0&#45;&gt;Node17</title>
<path fill="none" stroke="#191970" d="M520.6912,-336.4961C511.8474,-311.791 498.7573,-275.2242 490.8373,-253.0998"/>
<polygon fill="#191970" stroke="#191970" points="494.0715,-251.7495 487.4058,-243.5142 487.481,-254.1087 494.0715,-251.7495"/>
</g>
<!-- Node20 -->
<g id="node21" class="node">
<title>Node20</title>
<polygon fill="none" stroke="#bfbfbf" points="581.5,-280.5 581.5,-299.5 628.5,-299.5 628.5,-280.5 581.5,-280.5"/>
<text text-anchor="middle" x="605" y="-287.5" font-family="Helvetica,sans-Serif" font-size="10.00" fill="#000000">vector</text>
</g>
<!-- Node0&#45;&gt;Node20 -->
<g id="edge30" class="edge">
<title>Node0&#45;&gt;Node20</title>
<path fill="none" stroke="#191970" d="M557.0767,-336.3258C567.3317,-326.4127 578.7163,-315.4075 587.8153,-306.6118"/>
<polygon fill="#191970" stroke="#191970" points="590.3799,-309.0007 595.1372,-299.534 585.5147,-303.9678 590.3799,-309.0007"/>
</g>
<!-- Node21 -->
<g id="node22" class="node">
<title>Node21</title>
<polygon fill="none" stroke="#bfbfbf" points="646.5,-280.5 646.5,-299.5 691.5,-299.5 691.5,-280.5 646.5,-280.5"/>
<text text-anchor="middle" x="669" y="-287.5" font-family="Helvetica,sans-Serif" font-size="10.00" fill="#000000">utility</text>
</g>
<!-- Node0&#45;&gt;Node21 -->
<g id="edge31" class="edge">
<title>Node0&#45;&gt;Node21</title>
<path fill="none" stroke="#191970" d="M580.1822,-336.3258C600.9159,-325.5115 624.1412,-313.3976 641.6405,-304.2703"/>
<polygon fill="#191970" stroke="#191970" points="643.4732,-307.2619 650.721,-299.534 640.236,-301.0554 643.4732,-307.2619"/>
</g>
<!-- Node2 -->
<g id="node3" class="node">
<title>Node2</title>
<g id="a_node3"><a xlink:href="../../d2/d6d/GPUDef_8h.html" target="_top" xlink:title="GPUDef.h">
<polygon fill="none" stroke="#000000" points="469.5,-112.5 469.5,-131.5 532.5,-131.5 532.5,-112.5 469.5,-112.5"/>
<text text-anchor="middle" x="501" y="-119.5" font-family="Helvetica,sans-Serif" font-size="10.00" fill="#000000">GPUDef.h</text>
</a>
</g>
</g>
<!-- Node1&#45;&gt;Node2 -->
<g id="edge2" class="edge">
<title>Node1&#45;&gt;Node2</title>
<path fill="none" stroke="#191970" d="M521.6453,-168.2455C518.2756,-160.6973 513.507,-150.0158 509.4017,-140.8197"/>
<polygon fill="#191970" stroke="#191970" points="512.5773,-139.3473 505.3048,-131.6427 506.1853,-142.2009 512.5773,-139.3473"/>
</g>
<!-- Node3 -->
<g id="node4" class="node">
<title>Node3</title>
<g id="a_node4"><a xlink:href="../../df/d21/GPUCommonDef_8h.html" target="_top" xlink:title="GPUCommonDef.h">
<polygon fill="none" stroke="#000000" points="162.5,-56.5 162.5,-75.5 269.5,-75.5 269.5,-56.5 162.5,-56.5"/>
<text text-anchor="middle" x="216" y="-63.5" font-family="Helvetica,sans-Serif" font-size="10.00" fill="#000000">GPUCommonDef.h</text>
</a>
</g>
</g>
<!-- Node2&#45;&gt;Node3 -->
<g id="edge3" class="edge">
<title>Node2&#45;&gt;Node3</title>
<path fill="none" stroke="#191970" d="M469.4111,-115.7931C422.4192,-106.5596 333.3153,-89.0514 274.2832,-77.4521"/>
<polygon fill="#191970" stroke="#191970" points="274.8411,-73.9949 264.3539,-75.5011 273.4915,-80.8636 274.8411,-73.9949"/>
</g>
<!-- Node6 -->
<g id="node7" class="node">
<title>Node6</title>
<g id="a_node7"><a xlink:href="../../d2/d37/GPUDefConstantsAndSettings_8h.html" target="_top" xlink:title="GPUDefConstantsAndSettings.h">
<polygon fill="none" stroke="#000000" points="430.5,-56.5 430.5,-75.5 601.5,-75.5 601.5,-56.5 430.5,-56.5"/>
<text text-anchor="middle" x="516" y="-63.5" font-family="Helvetica,sans-Serif" font-size="10.00" fill="#000000">GPUDefConstantsAndSettings.h</text>
</a>
</g>
</g>
<!-- Node2&#45;&gt;Node6 -->
<g id="edge6" class="edge">
<title>Node2&#45;&gt;Node6</title>
<path fill="none" stroke="#191970" d="M503.6128,-112.2455C505.5916,-104.8579 508.3744,-94.4689 510.8012,-85.4087"/>
<polygon fill="#191970" stroke="#191970" points="514.2105,-86.2078 513.4171,-75.6427 507.4489,-84.3966 514.2105,-86.2078"/>
</g>
<!-- Node7 -->
<g id="node8" class="node">
<title>Node7</title>
<g id="a_node8"><a xlink:href="../../dc/de9/GPUDefGPUParameters_8h.html" target="_top" xlink:title="GPUDefGPUParameters.h">
<polygon fill="none" stroke="#000000" points="620,-56.5 620,-75.5 760,-75.5 760,-56.5 620,-56.5"/>
<text text-anchor="middle" x="690" y="-63.5" font-family="Helvetica,sans-Serif" font-size="10.00" fill="#000000">GPUDefGPUParameters.h</text>
</a>
</g>
</g>
<!-- Node2&#45;&gt;Node7 -->
<g id="edge7" class="edge">
<title>Node2&#45;&gt;Node7</title>
<path fill="none" stroke="#191970" d="M532.6344,-112.6269C564.1969,-103.275 612.8826,-88.8496 647.7403,-78.5214"/>
<polygon fill="#191970" stroke="#191970" points="649.0353,-81.7882 657.6289,-75.5914 647.0466,-75.0766 649.0353,-81.7882"/>
</g>
<!-- Node9 -->
<g id="node10" class="node">
<title>Node9</title>
<g id="a_node10"><a xlink:href="../../d3/d4c/GPUDefOpenCL12Templates_8h.html" target="_top" xlink:title="GPUDefOpenCL12Templates.h">
<polygon fill="none" stroke="#000000" points="778,-56.5 778,-75.5 942,-75.5 942,-56.5 778,-56.5"/>
<text text-anchor="middle" x="860" y="-63.5" font-family="Helvetica,sans-Serif" font-size="10.00" fill="#000000">GPUDefOpenCL12Templates.h</text>
</a>
</g>
</g>
<!-- Node2&#45;&gt;Node9 -->
<g id="edge9" class="edge">
<title>Node2&#45;&gt;Node9</title>
<path fill="none" stroke="#191970" d="M532.5442,-117.0795C589.5282,-108.1906 710.9334,-89.2527 788.8387,-77.1004"/>
<polygon fill="#191970" stroke="#191970" points="789.7182,-80.5056 799.0593,-75.5061 788.6393,-73.5892 789.7182,-80.5056"/>
</g>
<!-- Node10 -->
<g id="node11" class="node">
<title>Node10</title>
<g id="a_node11"><a xlink:href="../../d2/d45/GPUCommonRtypes_8h.html" target="_top" xlink:title="GPUCommonRtypes.h">
<polygon fill="none" stroke="#000000" points="287.5,-56.5 287.5,-75.5 412.5,-75.5 412.5,-56.5 287.5,-56.5"/>
<text text-anchor="middle" x="350" y="-63.5" font-family="Helvetica,sans-Serif" font-size="10.00" fill="#000000">GPUCommonRtypes.h</text>
</a>
</g>
</g>
<!-- Node2&#45;&gt;Node10 -->
<g id="edge10" class="edge">
<title>Node2&#45;&gt;Node10</title>
<path fill="none" stroke="#191970" d="M475.0422,-112.3733C450.2593,-103.1822 412.7254,-89.2624 385.246,-79.0713"/>
<polygon fill="#191970" stroke="#191970" points="386.2121,-75.6968 375.6191,-75.5011 383.7781,-82.26 386.2121,-75.6968"/>
</g>
<!-- Node4 -->
<g id="node5" class="node">
<title>Node4</title>
<g id="a_node5"><a xlink:href="../../d5/d93/GPUCommonDefSettings_8h.html" target="_top" xlink:title="GPUCommonDefSettings.h">
<polygon fill="none" stroke="#000000" points="0,-.5 0,-19.5 148,-19.5 148,-.5 0,-.5"/>
<text text-anchor="middle" x="74" y="-7.5" font-family="Helvetica,sans-Serif" font-size="10.00" fill="#000000">GPUCommonDefSettings.h</text>
</a>
</g>
</g>
<!-- Node3&#45;&gt;Node4 -->
<g id="edge4" class="edge">
<title>Node3&#45;&gt;Node4</title>
<path fill="none" stroke="#191970" d="M191.5893,-56.3733C168.3858,-47.2226 133.2962,-33.3844 107.4858,-23.2057"/>
<polygon fill="#191970" stroke="#191970" points="108.6789,-19.9139 98.0921,-19.5011 106.1108,-26.4258 108.6789,-19.9139"/>
</g>
<!-- Node5 -->
<g id="node6" class="node">
<title>Node5</title>
<g id="a_node6"><a xlink:href="../../da/d5a/GPUCommonDefAPI_8h.html" target="_top" xlink:title="GPUCommonDefAPI.h">
<polygon fill="none" stroke="#000000" points="166,-.5 166,-19.5 290,-19.5 290,-.5 166,-.5"/>
<text text-anchor="middle" x="228" y="-7.5" font-family="Helvetica,sans-Serif" font-size="10.00" fill="#000000">GPUCommonDefAPI.h</text>
</a>
</g>
</g>
<!-- Node3&#45;&gt;Node5 -->
<g id="edge5" class="edge">
<title>Node3&#45;&gt;Node5</title>
<path fill="none" stroke="#191970" d="M218.0902,-56.2455C219.6561,-48.9382 221.8512,-38.6944 223.7776,-29.7046"/>
<polygon fill="#191970" stroke="#191970" points="227.2607,-30.1541 225.9337,-19.6427 220.416,-28.6873 227.2607,-30.1541"/>
</g>
<!-- Node8 -->
<g id="node9" class="node">
<title>Node8</title>
<g id="a_node9"><a xlink:href="../../d6/dff/GPUDefMacros_8h.html" target="_top" xlink:title="GPUDefMacros.h">
<polygon fill="none" stroke="#000000" points="641,-.5 641,-19.5 739,-19.5 739,-.5 641,-.5"/>
<text text-anchor="middle" x="690" y="-7.5" font-family="Helvetica,sans-Serif" font-size="10.00" fill="#000000">GPUDefMacros.h</text>
</a>
</g>
</g>
<!-- Node7&#45;&gt;Node8 -->
<g id="edge8" class="edge">
<title>Node7&#45;&gt;Node8</title>
<path fill="none" stroke="#191970" d="M690,-56.2455C690,-48.9382 690,-38.6944 690,-29.7046"/>
<polygon fill="#191970" stroke="#191970" points="693.5001,-29.6426 690,-19.6427 686.5001,-29.6427 693.5001,-29.6426"/>
</g>
<!-- Node11 -->
<g id="node12" class="node">
<title>Node11</title>
<polygon fill="none" stroke="#bfbfbf" points="320.5,-.5 320.5,-19.5 379.5,-19.5 379.5,-.5 320.5,-.5"/>
<text text-anchor="middle" x="350" y="-7.5" font-family="Helvetica,sans-Serif" font-size="10.00" fill="#000000">Rtypes.h</text>
</g>
<!-- Node10&#45;&gt;Node11 -->
<g id="edge11" class="edge">
<title>Node10&#45;&gt;Node11</title>
<path fill="none" stroke="#191970" d="M350,-56.2455C350,-48.9382 350,-38.6944 350,-29.7046"/>
<polygon fill="#191970" stroke="#191970" points="353.5001,-29.6426 350,-19.6427 346.5001,-29.6427 353.5001,-29.6426"/>
</g>
<!-- Node12&#45;&gt;Node3 -->
<g id="edge13" class="edge">
<title>Node12&#45;&gt;Node3</title>
<path fill="none" stroke="#191970" d="M204.7722,-224.453C186.4126,-207.9161 151.0058,-171.8664 141,-132 138.8361,-123.3785 136.6582,-119.7564 141,-112 149.0789,-97.5676 163.7415,-87.1145 177.9729,-79.8565"/>
<polygon fill="#191970" stroke="#191970" points="179.6186,-82.9506 187.1892,-75.5387 176.6489,-76.6118 179.6186,-82.9506"/>
</g>
<!-- Node13 -->
<g id="node14" class="node">
<title>Node13</title>
<polygon fill="none" stroke="#bfbfbf" points="150.5,-112.5 150.5,-131.5 203.5,-131.5 203.5,-112.5 150.5,-112.5"/>
<text text-anchor="middle" x="177" y="-119.5" font-family="Helvetica,sans-Serif" font-size="10.00" fill="#000000">cstddef</text>
</g>
<!-- Node12&#45;&gt;Node13 -->
<g id="edge14" class="edge">
<title>Node12&#45;&gt;Node13</title>
<path fill="none" stroke="#191970" d="M204.9624,-224.2886C196.1143,-215.7352 184.3269,-202.421 179,-188 173.5383,-173.2141 173.3667,-155.2713 174.3781,-141.8285"/>
<polygon fill="#191970" stroke="#191970" points="177.8717,-142.0691 175.4157,-131.7629 170.9086,-141.3512 177.8717,-142.0691"/>
</g>
<!-- Node14&#45;&gt;Node2 -->
<g id="edge16" class="edge">
<title>Node14&#45;&gt;Node2</title>
<path fill="none" stroke="#191970" d="M417.1722,-280.4201C420.2524,-267.4144 426.3727,-243.5505 434,-224 444.1137,-198.0764 446.6704,-191.2233 462,-168 468.662,-157.9076 477.2512,-147.5584 484.6726,-139.2385"/>
<polygon fill="#191970" stroke="#191970" points="487.4209,-141.4198 491.5901,-131.6798 482.2569,-136.694 487.4209,-141.4198"/>
</g>
<!-- Node14&#45;&gt;Node12 -->
<g id="edge22" class="edge">
<title>Node14&#45;&gt;Node12</title>
<path fill="none" stroke="#191970" d="M380.7907,-280.3733C347.2703,-270.9404 296.0495,-256.5265 259.619,-246.2747"/>
<polygon fill="#191970" stroke="#191970" points="260.3372,-242.8409 249.7629,-243.5011 258.4409,-249.5792 260.3372,-242.8409"/>
</g>
<!-- Node15 -->
<g id="node16" class="node">
<title>Node15</title>
<g id="a_node16"><a xlink:href="../../d6/d57/GPUProcessor_8h.html" target="_top" xlink:title="GPUProcessor.h">
<polygon fill="none" stroke="#000000" points="188.5,-168.5 188.5,-187.5 281.5,-187.5 281.5,-168.5 188.5,-168.5"/>
<text text-anchor="middle" x="235" y="-175.5" font-family="Helvetica,sans-Serif" font-size="10.00" fill="#000000">GPUProcessor.h</text>
</a>
</g>
</g>
<!-- Node14&#45;&gt;Node15 -->
<g id="edge17" class="edge">
<title>Node14&#45;&gt;Node15</title>
<path fill="none" stroke="#191970" d="M399.6533,-280.4509C368.303,-260.9441 296.7034,-216.3932 259.0925,-192.9909"/>
<polygon fill="#191970" stroke="#191970" points="260.6475,-189.8362 250.3079,-187.5249 256.9494,-195.7797 260.6475,-189.8362"/>
</g>
<!-- Node14&#45;&gt;Node17 -->
<g id="edge23" class="edge">
<title>Node14&#45;&gt;Node17</title>
<path fill="none" stroke="#191970" d="M427.0189,-280.2455C437.2098,-271.9746 452.0362,-259.9416 464.0107,-250.2232"/>
<polygon fill="#191970" stroke="#191970" points="466.5598,-252.662 472.1188,-243.6427 462.1486,-247.2268 466.5598,-252.662"/>
</g>
<!-- Node15&#45;&gt;Node2 -->
<g id="edge19" class="edge">
<title>Node15&#45;&gt;Node2</title>
<path fill="none" stroke="#191970" d="M280.4248,-168.4369C330.5729,-157.8794 410.6233,-141.0267 459.2504,-130.7894"/>
<polygon fill="#191970" stroke="#191970" points="460.0635,-134.195 469.1279,-128.7099 458.6213,-127.3452 460.0635,-134.195"/>
</g>
<!-- Node15&#45;&gt;Node3 -->
<g id="edge18" class="edge">
<title>Node15&#45;&gt;Node3</title>
<path fill="none" stroke="#191970" d="M233.3801,-168.4509C230.2812,-150.184 223.4567,-109.9553 219.3416,-85.6976"/>
<polygon fill="#191970" stroke="#191970" points="222.7391,-84.7986 217.6158,-75.5249 215.8377,-85.9694 222.7391,-84.7986"/>
</g>
<!-- Node15&#45;&gt;Node13 -->
<g id="edge20" class="edge">
<title>Node15&#45;&gt;Node13</title>
<path fill="none" stroke="#191970" d="M224.8972,-168.2455C216.4972,-160.1352 204.3506,-148.4075 194.3916,-138.7919"/>
<polygon fill="#191970" stroke="#191970" points="196.6122,-136.0707 186.9871,-131.6427 191.75,-141.1066 196.6122,-136.0707"/>
</g>
<!-- Node16 -->
<g id="node17" class="node">
<title>Node16</title>
<polygon fill="none" stroke="#bfbfbf" points="260,-112.5 260,-131.5 324,-131.5 324,-112.5 260,-112.5"/>
<text text-anchor="middle" x="292" y="-119.5" font-family="Helvetica,sans-Serif" font-size="10.00" fill="#000000">algorithm</text>
</g>
<!-- Node15&#45;&gt;Node16 -->
<g id="edge21" class="edge">
<title>Node15&#45;&gt;Node16</title>
<path fill="none" stroke="#191970" d="M244.9286,-168.2455C253.1838,-160.1352 265.1209,-148.4075 274.9082,-138.7919"/>
<polygon fill="#191970" stroke="#191970" points="277.5046,-141.1476 282.1851,-131.6427 272.5989,-136.1542 277.5046,-141.1476"/>
</g>
<!-- Node17&#45;&gt;Node1 -->
<g id="edge24" class="edge">
<title>Node17&#45;&gt;Node1</title>
<path fill="none" stroke="#191970" d="M491.3158,-224.2455C497.2179,-216.3761 505.6742,-205.101 512.7594,-195.6542"/>
<polygon fill="#191970" stroke="#191970" points="515.568,-197.7427 518.768,-187.6427 509.9679,-193.5427 515.568,-197.7427"/>
</g>
<!-- Node18 -->
<g id="node19" class="node">
<title>Node18</title>
<g id="a_node19"><a xlink:href="../../d6/da2/GPUCommonMath_8h.html" target="_top" xlink:title="GPUCommonMath.h">
<polygon fill="none" stroke="#000000" points="299.5,-168.5 299.5,-187.5 414.5,-187.5 414.5,-168.5 299.5,-168.5"/>
<text text-anchor="middle" x="357" y="-175.5" font-family="Helvetica,sans-Serif" font-size="10.00" fill="#000000">GPUCommonMath.h</text>
</a>
</g>
</g>
<!-- Node17&#45;&gt;Node18 -->
<g id="edge25" class="edge">
<title>Node17&#45;&gt;Node18</title>
<path fill="none" stroke="#191970" d="M462.1679,-224.3733C441.6897,-215.3435 410.8601,-201.7494 387.8681,-191.6111"/>
<polygon fill="#191970" stroke="#191970" points="389.1093,-188.3333 378.5472,-187.5011 386.285,-194.7383 389.1093,-188.3333"/>
</g>
<!-- Node18&#45;&gt;Node3 -->
<g id="edge26" class="edge">
<title>Node18&#45;&gt;Node3</title>
<path fill="none" stroke="#191970" d="M355.96,-168.1589C353.9595,-153.9617 348.3167,-127.7175 333,-112 317.4171,-96.0093 295.6051,-85.4531 275.0308,-78.5415"/>
<polygon fill="#191970" stroke="#191970" points="275.9673,-75.1673 265.3785,-75.5248 273.8791,-81.8486 275.9673,-75.1673"/>
</g>
<!-- Node18&#45;&gt;Node16 -->
<g id="edge28" class="edge">
<title>Node18&#45;&gt;Node16</title>
<path fill="none" stroke="#191970" d="M345.6779,-168.2455C336.0777,-159.9746 322.1108,-147.9416 310.8305,-138.2232"/>
<polygon fill="#191970" stroke="#191970" points="313.053,-135.5182 303.1924,-131.6427 308.484,-140.8214 313.053,-135.5182"/>
</g>
<!-- Node19 -->
<g id="node20" class="node">
<title>Node19</title>
<polygon fill="none" stroke="#bfbfbf" points="380.5,-112.5 380.5,-131.5 427.5,-131.5 427.5,-112.5 380.5,-112.5"/>
<text text-anchor="middle" x="404" y="-119.5" font-family="Helvetica,sans-Serif" font-size="10.00" fill="#000000">cmath</text>
</g>
<!-- Node18&#45;&gt;Node19 -->
<g id="edge27" class="edge">
<title>Node18&#45;&gt;Node19</title>
<path fill="none" stroke="#191970" d="M365.1868,-168.2455C371.8589,-160.2958 381.4479,-148.8706 389.4253,-139.3656"/>
<polygon fill="#191970" stroke="#191970" points="392.1592,-141.5525 395.907,-131.6427 386.7974,-137.0524 392.1592,-141.5525"/>
</g>
</g>
</svg>
