<?xml version="1.0" encoding="UTF-8" standalone="no"?>
<!DOCTYPE svg PUBLIC "-//W3C//DTD SVG 1.1//EN"
 "http://www.w3.org/Graphics/SVG/1.1/DTD/svg11.dtd">
<!-- Generated by graphviz version 2.40.1 (20161225.0304)
 -->
<!-- Title: GPUCA_NAMESPACE::gpu::GPUTPCCFChainContext Pages: 1 -->
<!--zoomable 546 -->
<svg id="main" version="1.1" xmlns="http://www.w3.org/2000/svg" xmlns:xlink="http://www.w3.org/1999/xlink" xml:space="preserve" onload="init(evt)">
<style type="text/css"><![CDATA[
.edge:hover path { stroke: red; }
.edge:hover polygon { stroke: red; fill: red; }
]]></style>
<script type="text/javascript"><![CDATA[
var edges = document.getElementsByTagName('g');
if (edges && edges.length) {
  for (var i=0;i<edges.length;i++) {
    if (edges[i].id.substr(0,4)=='edge') {
      edges[i].setAttribute('class','edge');
    }
  }
}
]]></script>
        <defs>
                <circle id="rim" cx="0" cy="0" r="7"/>
                <circle id="rim2" cx="0" cy="0" r="3.5"/>
                <g id="zoomPlus">
                        <use xlink:href="#rim" fill="#404040">
                                <set attributeName="fill" to="#808080" begin="zoomplus.mouseover" end="zoomplus.mouseout"/>
                        </use>
                        <path d="M-4,0h8M0,-4v8" fill="none" stroke="white" stroke-width="1.5" pointer-events="none"/>
                </g>
                <g id="zoomMin">
                        <use xlink:href="#rim" fill="#404040">
                                <set attributeName="fill" to="#808080" begin="zoomminus.mouseover" end="zoomminus.mouseout"/>
                        </use>
                        <path d="M-4,0h8" fill="none" stroke="white" stroke-width="1.5" pointer-events="none"/>
                </g>
                <g id="dirArrow">
                        <path fill="none" stroke="white" stroke-width="1.5" d="M0,-3.0v7 M-2.5,-0.5L0,-3.0L2.5,-0.5"/>
                </g>
               <g id="resetDef">
                       <use xlink:href="#rim2" fill="#404040">
                               <set attributeName="fill" to="#808080" begin="reset.mouseover" end="reset.mouseout"/>
                       </use>
               </g>
        </defs>

<script type="text/javascript">
var viewWidth = 968;
var viewHeight = 546;
var sectionId = 'dynsection-0';
</script>
<script xlink:href="../../svgpan.js"/>
<svg id="graph" class="graph">
<g id="viewport">
<title>GPUCA_NAMESPACE::gpu::GPUTPCCFChainContext</title>
<!-- Node1 -->
<g id="node1" class="node">
<title>Node1</title>
<polygon fill="#bfbfbf" stroke="#000000" points="309,-.5 309,-68.5 449,-68.5 449,-.5 309,-.5"/>
<text text-anchor="start" x="317" y="-56.5" font-family="Helvetica,sans-Serif" font-size="10.00" fill="#000000">GPUCA_NAMESPACE::gpu</text>
<text text-anchor="middle" x="379" y="-45.5" font-family="Helvetica,sans-Serif" font-size="10.00" fill="#000000">::GPUTPCCFChainContext</text>
<polyline fill="none" stroke="#000000" points="309,-38.5 449,-38.5 "/>
<text text-anchor="middle" x="379" y="-26.5" font-family="Helvetica,sans-Serif" font-size="10.00" fill="#000000"> </text>
<polyline fill="none" stroke="#000000" points="309,-19.5 449,-19.5 "/>
<text text-anchor="start" x="317" y="-7.5" font-family="Helvetica,sans-Serif" font-size="10.00" fill="#000000">+ prepare()</text>
</g>
<!-- Node2 -->
<g id="node2" class="node">
<title>Node2</title>
<polygon fill="none" stroke="#bfbfbf" points="0,-133 0,-212 164,-212 164,-133 0,-133"/>
<text text-anchor="start" x="8" y="-200" font-family="Helvetica,sans-Serif" font-size="10.00" fill="#000000">vector&lt; GPUCA_NAMESPACE</text>
<text text-anchor="start" x="8" y="-189" font-family="Helvetica,sans-Serif" font-size="10.00" fill="#000000">::gpu::GPUTPCCFChainContext</text>
<text text-anchor="middle" x="82" y="-178" font-family="Helvetica,sans-Serif" font-size="10.00" fill="#000000">::FragmentData &gt;</text>
<polyline fill="none" stroke="#bfbfbf" points="0,-171 164,-171 "/>
<text text-anchor="middle" x="82" y="-159" font-family="Helvetica,sans-Serif" font-size="10.00" fill="#000000"> </text>
<polyline fill="none" stroke="#bfbfbf" points="0,-152 164,-152 "/>
<text text-anchor="middle" x="82" y="-140" font-family="Helvetica,sans-Serif" font-size="10.00" fill="#000000"> </text>
</g>
<!-- Node2&#45;&gt;Node1 -->
<g id="edge1" class="edge">
<title>Node2&#45;&gt;Node1</title>
<path fill="none" stroke="#404040" d="M126.895,-132.833C146.9356,-116.7655 171.5219,-99.1716 196,-87 227.4984,-71.3376 264.4363,-59.624 296.8466,-51.2831"/>
<polygon fill="none" stroke="#404040" points="296.9204,-51.2647 301.7744,-45.932 308.5639,-48.3616 303.7099,-53.6944 296.9204,-51.2647"/>
<text text-anchor="middle" x="236" y="-90" font-family="Helvetica,sans-Serif" font-size="10.00" fill="#000000"> +fragmentData</text>
</g>
<!-- Node3 -->
<g id="node3" class="node">
<title>Node3</title>
<polygon fill="none" stroke="#bfbfbf" points="467.5,-342.5 467.5,-399.5 512.5,-399.5 512.5,-342.5 467.5,-342.5"/>
<text text-anchor="middle" x="490" y="-387.5" font-family="Helvetica,sans-Serif" font-size="10.00" fill="#000000">size_t</text>
<polyline fill="none" stroke="#bfbfbf" points="467.5,-380.5 512.5,-380.5 "/>
<text text-anchor="middle" x="490" y="-368.5" font-family="Helvetica,sans-Serif" font-size="10.00" fill="#000000"> </text>
<polyline fill="none" stroke="#bfbfbf" points="467.5,-361.5 512.5,-361.5 "/>
<text text-anchor="middle" x="490" y="-349.5" font-family="Helvetica,sans-Serif" font-size="10.00" fill="#000000"> </text>
</g>
<!-- Node3&#45;&gt;Node1 -->
<g id="edge2" class="edge">
<title>Node3&#45;&gt;Node1</title>
<path fill="none" stroke="#404040" d="M490.1206,-342.4089C488.7605,-314.9578 482.6599,-273.8134 460,-247 446.8913,-231.4885 430.7999,-244.7673 418,-229 384.0198,-187.1424 377.0143,-123.7451 376.6995,-80.8041"/>
<polygon fill="none" stroke="#404040" points="376.7,-80.7258 372.7413,-74.6984 376.7824,-68.726 380.7411,-74.7534 376.7,-80.7258"/>
<text text-anchor="middle" x="474" y="-170" font-family="Helvetica,sans-Serif" font-size="10.00" fill="#000000"> +nMaxDigitsFragment</text>
</g>
<!-- Node8 -->
<g id="node8" class="node">
<title>Node8</title>
<g id="a_node8"><a xlink:href="../../db/d3d/structGPUCA__NAMESPACE_1_1gpu_1_1CfFragment.html" target="_top" xlink:title="{GPUCA_NAMESPACE::gpu\l::CfFragment\n||+ GPUdDefault()\l+ GPUd()\l+ GPUdi()\l+ GPUdi()\l+ GPUdi()\l}">
<polygon fill="none" stroke="#000000" points="667,-116.5 667,-228.5 807,-228.5 807,-116.5 667,-116.5"/>
<text text-anchor="start" x="675" y="-216.5" font-family="Helvetica,sans-Serif" font-size="10.00" fill="#000000">GPUCA_NAMESPACE::gpu</text>
<text text-anchor="middle" x="737" y="-205.5" font-family="Helvetica,sans-Serif" font-size="10.00" fill="#000000">::CfFragment</text>
<polyline fill="none" stroke="#000000" points="667,-198.5 807,-198.5 "/>
<text text-anchor="middle" x="737" y="-186.5" font-family="Helvetica,sans-Serif" font-size="10.00" fill="#000000"> </text>
<polyline fill="none" stroke="#000000" points="667,-179.5 807,-179.5 "/>
<text text-anchor="start" x="675" y="-167.5" font-family="Helvetica,sans-Serif" font-size="10.00" fill="#000000">+ GPUdDefault()</text>
<text text-anchor="start" x="675" y="-156.5" font-family="Helvetica,sans-Serif" font-size="10.00" fill="#000000">+ GPUd()</text>
<text text-anchor="start" x="675" y="-145.5" font-family="Helvetica,sans-Serif" font-size="10.00" fill="#000000">+ GPUdi()</text>
<text text-anchor="start" x="675" y="-134.5" font-family="Helvetica,sans-Serif" font-size="10.00" fill="#000000">+ GPUdi()</text>
<text text-anchor="start" x="675" y="-123.5" font-family="Helvetica,sans-Serif" font-size="10.00" fill="#000000">+ GPUdi()</text>
</a>
</g>
</g>
<!-- Node3&#45;&gt;Node8 -->
<g id="edge11" class="edge">
<title>Node3&#45;&gt;Node8</title>
<path fill="none" stroke="#404040" d="M486.0271,-342.4761C483.8267,-314.0651 485.5788,-271.2799 511,-247 532.7077,-226.2669 611.5979,-238.3158 655.3353,-228.5902"/>
<polygon fill="none" stroke="#404040" points="655.421,-228.5646 660.0219,-223.012 666.917,-225.1234 662.3161,-230.676 655.421,-228.5646"/>
<text text-anchor="middle" x="542" y="-277.5" font-family="Helvetica,sans-Serif" font-size="10.00" fill="#000000"> +digitsStart</text>
</g>
<!-- Node4 -->
<g id="node4" class="node">
<title>Node4</title>
<g id="a_node4"><a xlink:href="../../d5/d77/structGPUCA__NAMESPACE_1_1gpu_1_1GPUTPCCFChainContext_1_1PtrSave.html" target="_top" xlink:title="{GPUCA_NAMESPACE::gpu\l::GPUTPCCFChainContext\l::PtrSave\n||}">
<polygon fill="none" stroke="#000000" points="182,-133 182,-212 322,-212 322,-133 182,-133"/>
<text text-anchor="start" x="190" y="-200" font-family="Helvetica,sans-Serif" font-size="10.00" fill="#000000">GPUCA_NAMESPACE::gpu</text>
<text text-anchor="start" x="190" y="-189" font-family="Helvetica,sans-Serif" font-size="10.00" fill="#000000">::GPUTPCCFChainContext</text>
<text text-anchor="middle" x="252" y="-178" font-family="Helvetica,sans-Serif" font-size="10.00" fill="#000000">::PtrSave</text>
<polyline fill="none" stroke="#000000" points="182,-171 322,-171 "/>
<text text-anchor="middle" x="252" y="-159" font-family="Helvetica,sans-Serif" font-size="10.00" fill="#000000"> </text>
<polyline fill="none" stroke="#000000" points="182,-152 322,-152 "/>
<text text-anchor="middle" x="252" y="-140" font-family="Helvetica,sans-Serif" font-size="10.00" fill="#000000"> </text>
</a>
</g>
</g>
<!-- Node4&#45;&gt;Node1 -->
<g id="edge3" class="edge">
<title>Node4&#45;&gt;Node1</title>
<path fill="none" stroke="#404040" d="M262.1102,-132.8656C267.558,-117.27 275.5727,-100.0187 287,-87 290.647,-82.8451 294.7062,-78.942 299.0304,-75.289"/>
<polygon fill="none" stroke="#404040" points="299.368,-75.0281 301.6697,-68.1942 308.8632,-67.6904 306.5615,-74.5243 299.368,-75.0281"/>
<text text-anchor="middle" x="311.5" y="-90" font-family="Helvetica,sans-Serif" font-size="10.00" fill="#000000"> +ptrSave</text>
</g>
<!-- Node5 -->
<g id="node5" class="node">
<title>Node5</title>
<g id="a_node5"><a xlink:href="../../da/d0d/structGPUCA__NAMESPACE_1_1gpu_1_1GPUTPCClusterFinder_1_1ZSOffset.html" target="_top" xlink:title="{GPUCA_NAMESPACE::gpu\l::GPUTPCClusterFinder\l::ZSOffset\n||}">
<polygon fill="none" stroke="#000000" points="90,-331.5 90,-410.5 230,-410.5 230,-331.5 90,-331.5"/>
<text text-anchor="start" x="98" y="-398.5" font-family="Helvetica,sans-Serif" font-size="10.00" fill="#000000">GPUCA_NAMESPACE::gpu</text>
<text text-anchor="start" x="98" y="-387.5" font-family="Helvetica,sans-Serif" font-size="10.00" fill="#000000">::GPUTPCClusterFinder</text>
<text text-anchor="middle" x="160" y="-376.5" font-family="Helvetica,sans-Serif" font-size="10.00" fill="#000000">::ZSOffset</text>
<polyline fill="none" stroke="#000000" points="90,-369.5 230,-369.5 "/>
<text text-anchor="middle" x="160" y="-357.5" font-family="Helvetica,sans-Serif" font-size="10.00" fill="#000000"> </text>
<polyline fill="none" stroke="#000000" points="90,-350.5 230,-350.5 "/>
<text text-anchor="middle" x="160" y="-338.5" font-family="Helvetica,sans-Serif" font-size="10.00" fill="#000000"> </text>
</a>
</g>
</g>
<!-- Node5&#45;&gt;Node4 -->
<g id="edge4" class="edge">
<title>Node5&#45;&gt;Node4</title>
<path fill="none" stroke="#404040" d="M154.6429,-331.3331C153.0007,-305.9709 154.2874,-273.0662 167,-247 171.6248,-237.5173 178.0562,-228.7316 185.3314,-220.7684"/>
<polygon fill="none" stroke="#404040" points="185.4235,-220.6751 186.791,-213.5948 193.8526,-212.1339 192.4851,-219.2142 185.4235,-220.6751"/>
<text text-anchor="middle" x="209.5" y="-283" font-family="Helvetica,sans-Serif" font-size="10.00" fill="#000000"> +zsOffsetDevice</text>
<text text-anchor="middle" x="209.5" y="-272" font-family="Helvetica,sans-Serif" font-size="10.00" fill="#000000">+zsOffsetHost</text>
</g>
<!-- Node6 -->
<g id="node6" class="node">
<title>Node6</title>
<polygon fill="none" stroke="#bfbfbf" points="277.5,-480.5 277.5,-537.5 338.5,-537.5 338.5,-480.5 277.5,-480.5"/>
<text text-anchor="middle" x="308" y="-525.5" font-family="Helvetica,sans-Serif" font-size="10.00" fill="#000000">unsigned</text>
<polyline fill="none" stroke="#bfbfbf" points="277.5,-518.5 338.5,-518.5 "/>
<text text-anchor="middle" x="308" y="-506.5" font-family="Helvetica,sans-Serif" font-size="10.00" fill="#000000"> </text>
<polyline fill="none" stroke="#bfbfbf" points="277.5,-499.5 338.5,-499.5 "/>
<text text-anchor="middle" x="308" y="-487.5" font-family="Helvetica,sans-Serif" font-size="10.00" fill="#000000"> </text>
</g>
<!-- Node6&#45;&gt;Node1 -->
<g id="edge7" class="edge">
<title>Node6&#45;&gt;Node1</title>
<path fill="none" stroke="#404040" d="M317.9643,-480.215C324.2222,-460.8836 331.8661,-434.7071 336,-411 348.549,-339.0332 339.1097,-319.6253 347,-247 353.2532,-189.443 363.6838,-123.5821 370.9295,-80.6339"/>
<polygon fill="none" stroke="#404040" points="370.9615,-80.4451 368.025,-73.859 372.975,-68.6152 375.9116,-75.2013 370.9615,-80.4451"/>
<text text-anchor="middle" x="401.5" y="-305" font-family="Helvetica,sans-Serif" font-size="10.00" fill="#000000"> +nPagesSector</text>
<text text-anchor="middle" x="401.5" y="-294" font-family="Helvetica,sans-Serif" font-size="10.00" fill="#000000">+nPagesFragmentMax</text>
<text text-anchor="middle" x="401.5" y="-283" font-family="Helvetica,sans-Serif" font-size="10.00" fill="#000000">+nFragments</text>
<text text-anchor="middle" x="401.5" y="-272" font-family="Helvetica,sans-Serif" font-size="10.00" fill="#000000">+tpcMaxTimeBin</text>
<text text-anchor="middle" x="401.5" y="-261" font-family="Helvetica,sans-Serif" font-size="10.00" fill="#000000">+nPagesSectorMax</text>
<text text-anchor="middle" x="401.5" y="-250" font-family="Helvetica,sans-Serif" font-size="10.00" fill="#000000">+nPagesTotal</text>
</g>
<!-- Node6&#45;&gt;Node4 -->
<g id="edge6" class="edge">
<title>Node6&#45;&gt;Node4</title>
<path fill="none" stroke="#404040" d="M298.4247,-480.1422C292.331,-460.78 284.7239,-434.5966 280,-411 267.2392,-347.2579 259.6356,-272.6841 255.641,-224.1211"/>
<polygon fill="none" stroke="#404040" points="255.6327,-224.0167 251.1684,-218.3537 254.6788,-212.0547 259.1431,-217.7177 255.6327,-224.0167"/>
<text text-anchor="middle" x="308" y="-368.5" font-family="Helvetica,sans-Serif" font-size="10.00" fill="#000000"> +zsDevice</text>
</g>
<!-- Node6&#45;&gt;Node5 -->
<g id="edge5" class="edge">
<title>Node6&#45;&gt;Node5</title>
<path fill="none" stroke="#404040" d="M277.0112,-502.7402C252.4449,-496.3196 218.7429,-484.0573 197,-462 186.1359,-450.9788 178.3248,-436.3372 172.7674,-422.0266"/>
<polygon fill="none" stroke="#404040" points="172.7634,-422.0152 166.9979,-417.6841 168.7783,-410.6962 174.5439,-415.0274 172.7634,-422.0152"/>
<text text-anchor="middle" x="224.5" y="-454" font-family="Helvetica,sans-Serif" font-size="10.00" fill="#000000"> +endpoint</text>
<text text-anchor="middle" x="224.5" y="-443" font-family="Helvetica,sans-Serif" font-size="10.00" fill="#000000">+num</text>
<text text-anchor="middle" x="224.5" y="-432" font-family="Helvetica,sans-Serif" font-size="10.00" fill="#000000">+offset</text>
</g>
<!-- Node6&#45;&gt;Node8 -->
<g id="edge14" class="edge">
<title>Node6&#45;&gt;Node8</title>
<path fill="none" stroke="#404040" d="M338.8622,-507.2059C399.6469,-502.136 536.2213,-482.9424 620,-411 671.7221,-366.5853 702.7229,-293.9427 719.6874,-240.4797"/>
<polygon fill="none" stroke="#404040" points="719.7816,-240.1722 717.7157,-233.2633 723.2985,-228.6991 725.3644,-235.6079 719.7816,-240.1722"/>
<text text-anchor="middle" x="700.5" y="-368.5" font-family="Helvetica,sans-Serif" font-size="10.00" fill="#000000"> +index</text>
</g>
<!-- Node7 -->
<g id="node7" class="node">
<title>Node7</title>
<polygon fill="none" stroke="#bfbfbf" points="539,-138.5 539,-206.5 649,-206.5 649,-138.5 539,-138.5"/>
<text text-anchor="start" x="547" y="-194.5" font-family="Helvetica,sans-Serif" font-size="10.00" fill="#000000">pair&lt; unsigned int,</text>
<text text-anchor="middle" x="594" y="-183.5" font-family="Helvetica,sans-Serif" font-size="10.00" fill="#000000"> unsigned int &gt;</text>
<polyline fill="none" stroke="#bfbfbf" points="539,-176.5 649,-176.5 "/>
<text text-anchor="middle" x="594" y="-164.5" font-family="Helvetica,sans-Serif" font-size="10.00" fill="#000000"> </text>
<polyline fill="none" stroke="#bfbfbf" points="539,-157.5 649,-157.5 "/>
<text text-anchor="middle" x="594" y="-145.5" font-family="Helvetica,sans-Serif" font-size="10.00" fill="#000000"> </text>
</g>
<!-- Node7&#45;&gt;Node1 -->
<g id="edge8" class="edge">
<title>Node7&#45;&gt;Node1</title>
<path fill="none" stroke="#404040" d="M554.793,-138.3949C545.2887,-130.6949 534.9834,-122.7953 525,-116 503.4547,-101.335 479.0642,-86.9321 456.4742,-74.4112"/>
<polygon fill="none" stroke="#404040" points="456.4172,-74.38 449.233,-75.0025 445.8953,-68.6103 453.0795,-67.9878 456.4172,-74.38"/>
<text text-anchor="middle" x="519.5" y="-90" font-family="Helvetica,sans-Serif" font-size="10.00" fill="#000000"> +nextPos</text>
</g>
<!-- Node8&#45;&gt;Node1 -->
<g id="edge9" class="edge">
<title>Node8&#45;&gt;Node1</title>
<path fill="none" stroke="#404040" d="M666.6493,-120.4893C663.7701,-118.9049 660.8813,-117.4008 658,-116 594.8704,-85.3079 517.9693,-63.9069 460.9029,-50.762"/>
<polygon fill="none" stroke="#404040" points="460.7438,-50.7261 454.0099,-53.3057 449.0387,-48.082 455.7726,-45.5023 460.7438,-50.7261"/>
<text text-anchor="middle" x="652.5" y="-90" font-family="Helvetica,sans-Serif" font-size="10.00" fill="#000000"> +fragmentFirst</text>
</g>
<!-- Node9 -->
<g id="node9" class="node">
<title>Node9</title>
<g id="a_node9"><a xlink:href="../../dc/d10/classshort.html" target="_top" xlink:title="{short\n||}">
<polygon fill="none" stroke="#000000" points="729.5,-342.5 729.5,-399.5 770.5,-399.5 770.5,-342.5 729.5,-342.5"/>
<text text-anchor="middle" x="750" y="-387.5" font-family="Helvetica,sans-Serif" font-size="10.00" fill="#000000">short</text>
<polyline fill="none" stroke="#000000" points="729.5,-380.5 770.5,-380.5 "/>
<text text-anchor="middle" x="750" y="-368.5" font-family="Helvetica,sans-Serif" font-size="10.00" fill="#000000"> </text>
<polyline fill="none" stroke="#000000" points="729.5,-361.5 770.5,-361.5 "/>
<text text-anchor="middle" x="750" y="-349.5" font-family="Helvetica,sans-Serif" font-size="10.00" fill="#000000"> </text>
</a>
</g>
</g>
<!-- Node9&#45;&gt;Node8 -->
<g id="edge10" class="edge">
<title>Node9&#45;&gt;Node8</title>
<path fill="none" stroke="#404040" d="M746.7369,-342.4116C745.7499,-333.0483 744.7343,-322.5889 744,-313 742.198,-289.4686 740.759,-263.683 739.6657,-240.6978"/>
<polygon fill="none" stroke="#404040" points="739.661,-240.5929 735.3895,-234.783 739.1096,-228.6055 743.3811,-234.4154 739.661,-240.5929"/>
<text text-anchor="middle" x="796.5" y="-283" font-family="Helvetica,sans-Serif" font-size="10.00" fill="#000000"> +length</text>
<text text-anchor="middle" x="796.5" y="-272" font-family="Helvetica,sans-Serif" font-size="10.00" fill="#000000">+maxSubSliceLength</text>
</g>
<!-- Node10 -->
<g id="node10" class="node">
<title>Node10</title>
<polygon fill="none" stroke="#bfbfbf" points="856.5,-342.5 856.5,-399.5 885.5,-399.5 885.5,-342.5 856.5,-342.5"/>
<text text-anchor="middle" x="871" y="-387.5" font-family="Helvetica,sans-Serif" font-size="10.00" fill="#000000">int</text>
<polyline fill="none" stroke="#bfbfbf" points="856.5,-380.5 885.5,-380.5 "/>
<text text-anchor="middle" x="871" y="-368.5" font-family="Helvetica,sans-Serif" font-size="10.00" fill="#000000"> </text>
<polyline fill="none" stroke="#bfbfbf" points="856.5,-361.5 885.5,-361.5 "/>
<text text-anchor="middle" x="871" y="-349.5" font-family="Helvetica,sans-Serif" font-size="10.00" fill="#000000"> </text>
</g>
<!-- Node10&#45;&gt;Node8 -->
<g id="edge12" class="edge">
<title>Node10&#45;&gt;Node8</title>
<path fill="none" stroke="#404040" d="M872.1076,-342.3384C871.792,-315.5944 867.7435,-275.6268 849,-247 840.6724,-234.2813 829.3379,-223.2137 817.0641,-213.7799"/>
<polygon fill="none" stroke="#404040" points="816.7918,-213.5835 809.5855,-213.3181 807.0589,-206.5641 814.2652,-206.8295 816.7918,-213.5835"/>
<text text-anchor="middle" x="914.5" y="-283" font-family="Helvetica,sans-Serif" font-size="10.00" fill="#000000"> +totalSliceLength</text>
<text text-anchor="middle" x="914.5" y="-272" font-family="Helvetica,sans-Serif" font-size="10.00" fill="#000000">+start</text>
</g>
<!-- Node11 -->
<g id="node11" class="node">
<title>Node11</title>
<polygon fill="none" stroke="#bfbfbf" points="573,-342.5 573,-399.5 611,-399.5 611,-342.5 573,-342.5"/>
<text text-anchor="middle" x="592" y="-387.5" font-family="Helvetica,sans-Serif" font-size="10.00" fill="#000000">bool</text>
<polyline fill="none" stroke="#bfbfbf" points="573,-380.5 611,-380.5 "/>
<text text-anchor="middle" x="592" y="-368.5" font-family="Helvetica,sans-Serif" font-size="10.00" fill="#000000"> </text>
<polyline fill="none" stroke="#bfbfbf" points="573,-361.5 611,-361.5 "/>
<text text-anchor="middle" x="592" y="-349.5" font-family="Helvetica,sans-Serif" font-size="10.00" fill="#000000"> </text>
</g>
<!-- Node11&#45;&gt;Node8 -->
<g id="edge13" class="edge">
<title>Node11&#45;&gt;Node8</title>
<path fill="none" stroke="#404040" d="M583.2256,-342.2631C576.7683,-314.8975 572.2969,-273.9889 593,-247 609.2493,-225.8171 626.6567,-238.3343 655.5082,-229.066"/>
<polygon fill="none" stroke="#404040" points="655.5453,-229.051 659.6138,-223.0972 666.6745,-224.5629 662.606,-230.5167 655.5453,-229.051"/>
<text text-anchor="middle" x="625.5" y="-283" font-family="Helvetica,sans-Serif" font-size="10.00" fill="#000000"> +hasFuture</text>
<text text-anchor="middle" x="625.5" y="-272" font-family="Helvetica,sans-Serif" font-size="10.00" fill="#000000">+hasBacklog</text>
</g>
</g>
</svg>
        <g id="navigator" transform="translate(0 0)" fill="#404254">
                <rect fill="#f2f5e9" fill-opacity="0.5" stroke="#606060" stroke-width=".5" x="0" y="0" width="60" height="60"/>
                <use id="zoomplus" xlink:href="#zoomPlus" x="17" y="9" onmousedown="handleZoom(evt,'in')"/>
                <use id="zoomminus" xlink:href="#zoomMin" x="42" y="9" onmousedown="handleZoom(evt,'out')"/>
                <use id="reset" xlink:href="#resetDef" x="30" y="36" onmousedown="handleReset()"/>
                <g id="arrowUp" xlink:href="#dirArrow" transform="translate(30 24)" onmousedown="handlePan(0,-1)">
                  <use xlink:href="#rim" fill="#404040">
                        <set attributeName="fill" to="#808080" begin="arrowUp.mouseover" end="arrowUp.mouseout"/>
                  </use>
                  <path fill="none" stroke="white" stroke-width="1.5" d="M0,-3.0v7 M-2.5,-0.5L0,-3.0L2.5,-0.5"/>
                </g>
                <g id="arrowRight" xlink:href="#dirArrow" transform="rotate(90) translate(36 -43)" onmousedown="handlePan(1,0)">
                  <use xlink:href="#rim" fill="#404040">
                        <set attributeName="fill" to="#808080" begin="arrowRight.mouseover" end="arrowRight.mouseout"/>
                  </use>
                  <path fill="none" stroke="white" stroke-width="1.5" d="M0,-3.0v7 M-2.5,-0.5L0,-3.0L2.5,-0.5"/>
                </g>
                <g id="arrowDown" xlink:href="#dirArrow" transform="rotate(180) translate(-30 -48)" onmousedown="handlePan(0,1)">
                  <use xlink:href="#rim" fill="#404040">
                        <set attributeName="fill" to="#808080" begin="arrowDown.mouseover" end="arrowDown.mouseout"/>
                  </use>
                  <path fill="none" stroke="white" stroke-width="1.5" d="M0,-3.0v7 M-2.5,-0.5L0,-3.0L2.5,-0.5"/>
                </g>
                <g id="arrowLeft" xlink:href="#dirArrow" transform="rotate(270) translate(-36 17)" onmousedown="handlePan(-1,0)">
                  <use xlink:href="#rim" fill="#404040">
                        <set attributeName="fill" to="#808080" begin="arrowLeft.mouseover" end="arrowLeft.mouseout"/>
                  </use>
                  <path fill="none" stroke="white" stroke-width="1.5" d="M0,-3.0v7 M-2.5,-0.5L0,-3.0L2.5,-0.5"/>
                </g>
        </g>
        <svg viewBox="0 0 15 15" width="100%" height="30px" preserveAspectRatio="xMaxYMin meet">
         <g id="arrow_out" transform="scale(0.3 0.3)">
          <a xlink:href="structGPUCA__NAMESPACE_1_1gpu_1_1GPUTPCCFChainContext__coll__graph_org.svg" target="_base">
           <rect id="button" ry="5" rx="5" y="6" x="6" height="38" width="38"
                fill="#f2f5e9" fill-opacity="0.5" stroke="#606060" stroke-width="1.0"/>
           <path id="arrow"
             d="M 11.500037,31.436501 C 11.940474,20.09759 22.043105,11.32322 32.158766,21.979434 L 37.068811,17.246167 C 37.068811,17.246167 37.088388,32 37.088388,32 L 22.160133,31.978069 C 22.160133,31.978069 26.997745,27.140456 26.997745,27.140456 C 18.528582,18.264221 13.291696,25.230495 11.500037,31.436501 z"
             style="fill:#404040;"/>
          </a>
         </g>
        </svg>
</svg>
